<?xml version="1.0" encoding="UTF-8" standalone="no"?>
<svg
   xmlns:dc="http://purl.org/dc/elements/1.1/"
   xmlns:cc="http://creativecommons.org/ns#"
   xmlns:rdf="http://www.w3.org/1999/02/22-rdf-syntax-ns#"
   xmlns:svg="http://www.w3.org/2000/svg"
   xmlns="http://www.w3.org/2000/svg"
   xmlns:sodipodi="http://sodipodi.sourceforge.net/DTD/sodipodi-0.dtd"
   xmlns:inkscape="http://www.inkscape.org/namespaces/inkscape"
   inkscape:version="1.0 (4035a4fb49, 2020-05-01)"
   sodipodi:docname="audio2g.svg"
   id="svg14"
   xml:space="preserve"
   enable-background="new 0 0 100 100"
   viewBox="0 0 42.636553 42.63563"
   y="0px"
   x="0px"
   version="1.1"
   fill="#000000"
   width="127.90966"
   height="127.90689"><metadata
     id="metadata20"><rdf:RDF><cc:Work
         rdf:about=""><dc:format>image/svg+xml</dc:format><dc:type
           rdf:resource="http://purl.org/dc/dcmitype/StillImage" /><dc:title></dc:title></cc:Work></rdf:RDF></metadata><defs
     id="defs18" /><sodipodi:namedview
     inkscape:current-layer="svg14"
     inkscape:window-maximized="0"
     inkscape:window-y="0"
     inkscape:window-x="0"
     inkscape:cy="83.586743"
     inkscape:cx="15.437109"
     inkscape:zoom="3.2041644"
     showgrid="false"
     id="namedview16"
     inkscape:window-height="1080"
     inkscape:window-width="1920"
     inkscape:pageshadow="2"
     inkscape:pageopacity="0"
     guidetolerance="10"
     gridtolerance="10"
     objecttolerance="10"
     borderopacity="1"
     bordercolor="#666666"
     pagecolor="#ffffff" /><path
     style="stroke-width:1;fill:#808080"
     id="path2"
     d="m 16.14629,11.472756 c 0.301993,-0.303 0.792993,-0.303 1.096004,0 l 3.086995,3.087 c 0.302991,0.303 0.301993,0.794 0,1.096 l -4.673006,4.673 c -0.301994,0.303 -0.792004,0.303 -1.094987,0 l -3.088007,-3.088 c -0.301993,-0.302 -0.301993,-0.793 0,-1.096 z" /><path
     style="stroke-width:1;fill:#808080"
     id="path4"
     d="m 11.403288,6.728756 c 0.303004,-0.301 0.793007,-0.303 1.095005,0 l 3.087996,3.089 c 0.301994,0.303 0.301994,0.792 0,1.095 l -4.672992,4.673 c -0.303001,0.302 -0.792007,0.302 -1.0950042,0 l -3.0879967,-3.088 c -0.3019989,-0.302 -0.3019989,-0.792 0,-1.095 z" /><path
     style="stroke-width:1;fill:#808080"
     id="path6"
     d="m 0.00730495,1.004756 0.41999917,4.727 c -0.0219998,0.141 -0.0189993,0.283 0.0370002,0.416 l 0.007997,0.094 c 0.0160005,0.014 0.0439997,0.014 0.0679996,0.023 0.0290001,0.045 0.0499996,0.094 0.0899997,0.134 l 4.58999188,2.544 c 0.019003,0.019 0.042,0.025 0.062,0.041 l -0.1959998,1.871 c 0.3029989,0.303 0.7929984,0.303 1.0949975,0 l 4.6729898,-4.672 c 0.302013,-0.302 0.303007,-0.793 0,-1.096 l -1.8719947,0.197 c -0.015003,-0.021 -0.022005,-0.045 -0.041011,-0.063 l -2.5429955,-4.59 c -0.041012,-0.04 -0.090003,-0.062 -0.1359999,-0.091 -0.00698,-0.022 -0.00698,-0.051 -0.022005,-0.068 l -0.092997,-0.006 c -0.1329998,-0.058 -0.2759997,-0.061 -0.4169987,-0.039 l -4.7259914,-0.42 c -0.0209997,-0.02 -0.0799997,0.006 -0.13199963,0.057 l -0.80899847,0.809 c -0.05099992,0.053 -0.07699982,0.112 -0.05599978,0.132 z" /><path
     style="stroke-width:1;fill:#808080"
     id="path8"
     d="m 16.128284,21.894756 3.086994,3.088 c 0.01192,0.011 0.02606,0.016 0.03795,0.024 -0.231001,0.236 -0.136003,1.616 -0.103948,1.903 l -0.383986,0.384 14.510983,14.511 v 0 c 1.109002,1.108 2.906989,1.108 4.015989,-10e-4 l 4.512997,-4.513 c 1.107996,-1.109 1.107996,-2.906 0.0023,-4.016 v 0 l -14.511991,-14.51 -0.383993,0.383 c -0.285997,-0.032 -1.666997,-0.127 -1.902,0.104 -0.0106,-0.012 -0.01401,-0.025 -0.02492,-0.038 l -3.086992,-3.087 c -0.303006,-0.303 -0.793,-0.303 -1.095005,0 l -4.672994,4.672 c -0.304,0.303 -0.304,0.794 -10e-4,1.096 z" /></svg>
