<?xml version="1.0" encoding="UTF-8" standalone="no"?>
<svg
   xmlns:dc="http://purl.org/dc/elements/1.1/"
   xmlns:cc="http://creativecommons.org/ns#"
   xmlns:rdf="http://www.w3.org/1999/02/22-rdf-syntax-ns#"
   xmlns:svg="http://www.w3.org/2000/svg"
   xmlns="http://www.w3.org/2000/svg"
   xmlns:sodipodi="http://sodipodi.sourceforge.net/DTD/sodipodi-0.dtd"
   xmlns:inkscape="http://www.inkscape.org/namespaces/inkscape"
   inkscape:version="1.0 (4035a4fb49, 2020-05-01)"
   sodipodi:docname="audio2.svg"
   id="svg14"
   xml:space="preserve"
   enable-background="new 0 0 100 100"
   viewBox="0 0 42.636553 42.63563"
   y="0px"
   x="0px"
   version="1.1"
   fill="#000000"
   width="127.90966"
   height="127.90689"><metadata
     id="metadata20"><rdf:RDF><cc:Work
         rdf:about=""><dc:format>image/svg+xml</dc:format><dc:type
           rdf:resource="http://purl.org/dc/dcmitype/StillImage" /><dc:title></dc:title></cc:Work></rdf:RDF></metadata><defs
     id="defs18" /><sodipodi:namedview
     inkscape:current-layer="svg14"
     inkscape:window-maximized="0"
     inkscape:window-y="0"
     inkscape:window-x="0"
     inkscape:cy="136.35271"
     inkscape:cx="-158.04271"
     inkscape:zoom="1.1498638"
     showgrid="false"
     id="namedview16"
     inkscape:window-height="1080"
     inkscape:window-width="1920"
     inkscape:pageshadow="2"
     inkscape:pageopacity="0"
     guidetolerance="10"
     gridtolerance="10"
     objecttolerance="10"
     borderopacity="1"
     bordercolor="#666666"
     pagecolor="#ffffff" /><g
     transform="rotate(-90,39.95453,46.620226)"
     id="g867"><path
       d="m 75.102,22.812 c 0.303,0.302 0.303,0.793 0,1.096 l -3.087,3.087 c -0.303,0.303 -0.794,0.302 -1.096,0 l -4.673,-4.673 c -0.303,-0.302 -0.303,-0.792 0,-1.095 l 3.088,-3.088 c 0.302,-0.302 0.793,-0.302 1.096,0 z"
       id="path2" /><path
       d="m 79.846,18.069 c 0.301,0.303 0.303,0.793 0,1.095 l -3.089,3.088 c -0.303,0.302 -0.792,0.302 -1.095,0 l -4.673,-4.673 c -0.302,-0.303 -0.302,-0.792 0,-1.095 l 3.088,-3.088 c 0.302,-0.302 0.792,-0.302 1.095,0 z"
       id="path4" /><path
       d="m 85.57,6.6729999 -4.727,0.42 c -0.141,-0.022 -0.283,-0.019 -0.416,0.037 l -0.094,0.008 c -0.014,0.016 -0.014,0.044 -0.023,0.068 -0.045,0.029 -0.094,0.05 -0.134,0.09 L 77.632,11.886 c -0.019,0.019 -0.025,0.042 -0.041,0.062 L 75.72,11.752 c -0.303,0.303 -0.303,0.793 0,1.095 l 4.672,4.673 c 0.302,0.302 0.793,0.303 1.096,0 l -0.197,-1.872 c 0.021,-0.015 0.045,-0.022 0.063,-0.041 l 4.59,-2.543 c 0.04,-0.041 0.062,-0.09 0.091,-0.136 0.022,-0.007 0.051,-0.007 0.068,-0.022 l 0.006,-0.093 c 0.058,-0.133 0.061,-0.276 0.039,-0.417 l 0.42,-4.7260001 c 0.02,-0.021 -0.006,-0.08 -0.057,-0.132 l -0.809,-0.809 c -0.053,-0.051 -0.112,-0.077 -0.132,-0.056 z"
       id="path6" /><path
       d="m 64.68,22.794 -3.088,3.087 c -0.011,0.012 -0.016,0.026 -0.024,0.038 -0.236,-0.231 -1.616,-0.136 -1.903,-0.104 L 59.281,25.431 44.77,39.942 v 0 c -1.108,1.109 -1.108,2.907 10e-4,4.016 l 4.513,4.513 c 1.109,1.108 2.906,1.108 4.016,0.002 v 0 L 67.81,33.961 67.427,33.577 c 0.032,-0.286 0.127,-1.667 -0.104,-1.902 0.012,-0.01 0.025,-0.014 0.038,-0.025 l 3.087,-3.087 c 0.303,-0.303 0.303,-0.793 0,-1.095 L 65.776,22.795 C 65.473,22.491 64.982,22.491 64.68,22.794 Z"
       id="path8" /></g></svg>
