<?xml version="1.0" encoding="UTF-8" standalone="no"?>
<svg
   xmlns:dc="http://purl.org/dc/elements/1.1/"
   xmlns:cc="http://creativecommons.org/ns#"
   xmlns:rdf="http://www.w3.org/1999/02/22-rdf-syntax-ns#"
   xmlns:svg="http://www.w3.org/2000/svg"
   xmlns="http://www.w3.org/2000/svg"
   xmlns:sodipodi="http://sodipodi.sourceforge.net/DTD/sodipodi-0.dtd"
   xmlns:inkscape="http://www.inkscape.org/namespaces/inkscape"
   sodipodi:docname="loopfisch2.svg"
   inkscape:version="1.0 (4035a4fb49, 2020-05-01)"
   id="svg8"
   version="1.1"
   viewBox="0 0 79.084183 83.304192"
   height="83.304192mm"
   width="79.084183mm">
  <defs
     id="defs2">
    <inkscape:path-effect
       fuse_tolerance="0"
       hide_knot="false"
       vertical_pattern="false"
       prop_units="false"
       tang_offset="0"
       normal_offset="0"
       spacing="16"
       scale_y_rel="false"
       prop_scale="1.25"
       copytype="repeated_stretched"
       pattern="M 30.99703,8.5945832 C 26.83052,6.0946763 18.497353,1.0947765 11.830428,0.26131281 5.1635036,-0.57215087 0.13216934,2.7820721 0.13229146,6.0945718 0.13241357,9.4070715 5.1637478,12.761294 11.830434,11.927819 c 6.666685,-0.833475 14.999853,-5.8333748 19.16648,-8.3333518 4.166629,-2.4999769 4.166629,-2.4999769 4.166629,-2.4999769 0,0 0,9.9999997 0,9.9999997 0,0 0,0 -4.166513,-2.4999068 z"
       lpeversion="1"
       is_visible="true"
       id="path-effect892"
       effect="skeletal" />
    <inkscape:path-effect
       hide_knot="false"
       vertical="false"
       scale_y_rel="false"
       prop_scale="1"
       bendpath="m 21.122353,78.268518 h 64.9496"
       lpeversion="1"
       is_visible="true"
       id="path-effect888"
       effect="bend_path" />
    <inkscape:path-effect
       only_selected="false"
       apply_with_weight="true"
       apply_no_weight="true"
       helper_size="0"
       steps="2"
       weight="33.333333"
       lpeversion="1"
       is_visible="true"
       id="path-effect843"
       effect="bspline" />
    <inkscape:path-effect
       only_selected="false"
       apply_with_weight="true"
       apply_no_weight="true"
       helper_size="0"
       steps="2"
       weight="33.333333"
       lpeversion="1"
       is_visible="true"
       id="path-effect839"
       effect="bspline" />
  </defs>
  <sodipodi:namedview
     inkscape:window-maximized="1"
     inkscape:window-y="18"
     inkscape:window-x="0"
     inkscape:window-height="1041"
     inkscape:window-width="1916"
     showgrid="false"
     inkscape:document-rotation="0"
     inkscape:current-layer="layer1"
     inkscape:document-units="mm"
     inkscape:cy="142.17617"
     inkscape:cx="266.64747"
     inkscape:zoom="1.3548602"
     inkscape:pageshadow="2"
     inkscape:pageopacity="0.0"
     borderopacity="1.0"
     bordercolor="#666666"
     pagecolor="#ffffff"
     id="base" />
  <metadata
     id="metadata5">
    <rdf:RDF>
      <cc:Work
         rdf:about="">
        <dc:format>image/svg+xml</dc:format>
        <dc:type
           rdf:resource="http://purl.org/dc/dcmitype/StillImage" />
        <dc:title></dc:title>
      </cc:Work>
    </rdf:RDF>
  </metadata>
  <g
     transform="translate(-15.236553,-35.866132)"
     id="layer1"
     inkscape:groupmode="layer"
     inkscape:label="Layer 1">
    <path
       sodipodi:nodetypes="sssssssssscccsscssssscsscccssscssssscsssccss"
       d="m 62.193341,106.18533 c 2.90981,0.66754 7.418278,1.13472 12.736746,-0.34501 5.305306,-1.47607 10.39835,-4.68685 13.535362,-9.310794 3.082503,-4.543597 3.612067,-9.502936 2.726448,-12.987194 -0.898765,-3.535978 -3.064732,-5.273896 -5.119949,-5.273815 -2.045559,8.1e-5 -4.133162,1.63053 -5.812002,3.564277 -1.715404,1.975865 -3.237396,4.500145 -4.457321,7.702481 -1.245761,3.270156 -2.425683,7.597259 -4.418933,11.835575 -2.117727,4.50299 -4.617729,7.99364 -7.18057,10.65448 -2.144503,2.2265 -4.165746,3.6561 -4.646403,3.99177 -0.388583,0.27137 -0.753159,0.51952 -0.753159,0.51952 l -1.853338,-12.23557 c 0,0 0.281364,0.13311 0.602709,0.29786 0.360714,0.17072 2.079838,0.999 4.64041,1.58642 z M 24.98715,72.011687 c -1.396259,1.348923 -3.160452,3.366682 -4.604362,6.256829 -2.977753,6.021695 -3.484971,14.385249 0.09498,21.172112 2.55558,4.844862 6.614422,7.594272 10.036442,8.475442 3.466041,0.8925 6.051991,-0.0774 7.106279,-1.81356 1.055389,-1.73798 0.746712,-4.36588 -0.168818,-6.894085 -0.94324,-2.604728 -2.532132,-5.198638 -4.897948,-7.790208 -3.661716,-4.01113 -7.422649,-6.878282 -10.69198,-13.149701 -1.456801,-2.766037 -2.345806,-5.498527 -2.867222,-7.746173 -0.69123,-2.979653 -0.803265,-5.515623 -0.835517,-6.047978 -0.03317,-0.547477 -0.03515,-0.901042 -0.03515,-0.901042 l 11.306347,5.021944 c 0,0 -0.268596,0.158461 -0.579499,0.360194 -0.262091,0.166878 -2.014196,1.269567 -3.863552,3.056226 z M 73.108347,56.991138 c -0.761155,-2.741485 -2.302944,-6.753428 -5.684089,-10.552593 -3.396548,-3.816473 -8.2257,-6.85048 -13.827105,-7.731227 -0.596585,-0.06995 -1.187949,-0.112834 -1.771175,-0.128919 -5.681979,-0.156709 -10.12675,2.167784 -12.507461,4.748513 -2.424852,2.628579 -2.750576,5.374306 -1.697898,7.107535 1.061975,1.748537 3.527844,2.657932 6.144919,3.021624 2.69153,0.374039 5.570456,0.210182 8.785961,-0.376487 0.341706,-0.06234 0.689972,-0.129555 1.045654,-0.199483 3.462425,-0.91283 6.972226,-1.765522 11.700106,-1.893468 4.59648,-0.12439 8.750591,0.525289 12.045018,1.434035 2.972087,0.819832 5.207151,1.854327 5.711483,2.098984 0.528289,0.256279 0.809083,0.386651 0.809083,0.386651 l -9.767271,7.718316 c 0,0 -0.127075,-0.950916 -0.194685,-1.641027 -0.03727,-0.38035 -0.0847,-1.443001 -0.79254,-3.992454 z"
       style="fill:none;stroke:#000000;stroke-width:3;stroke-linecap:butt;stroke-linejoin:round;stroke-miterlimit:4;stroke-dasharray:none;stroke-dashoffset:0"
       id="path885" />
    <text
       transform="rotate(-11.405558)"
       id="text902"
       y="81.434853"
       x="19.341654"
       style="font-style:normal;font-weight:normal;font-size:16.5056px;line-height:93.6%;font-family:sans-serif;letter-spacing:0px;word-spacing:0px;fill:#000000;fill-opacity:1;stroke:none;stroke-width:0.41264px;stroke-linecap:butt;stroke-linejoin:miter;stroke-opacity:1"
       xml:space="preserve"><tspan
         style="font-style:normal;font-variant:normal;font-weight:normal;font-stretch:normal;font-family:'Perfect DOS VGA 437 Win';-inkscape-font-specification:'Perfect DOS VGA 437 Win';stroke-width:0.41264px"
         y="81.434853"
         x="19.341654"
         id="tspan900"
         sodipodi:role="line">Loop</tspan><tspan
         id="tspan904"
         style="font-style:normal;font-variant:normal;font-weight:normal;font-stretch:normal;font-family:'Perfect DOS VGA 437 Win';-inkscape-font-specification:'Perfect DOS VGA 437 Win';stroke-width:0.41264px"
         y="97.04528"
         x="19.341654"
         sodipodi:role="line">fish</tspan></text>
  </g>
</svg>
